<svg xmlns="http://www.w3.org/2000/svg" width="31" height="31" viewBox="0 0 31 31">
  <title>Artboard 45 copy 4</title>
  <g opacity="0.4">
    <path d="M15.5,30.5a15,15,0,1,1,15-15A15,15,0,0,1,15.5,30.5Zm0-27a12,12,0,1,0,12,12A12,12,0,0,0,15.5,3.5Z"/>
  </g>
  <g opacity="0.4">
    <path d="M16.3,5.5a6.31,6.31,0,0,0-3.85,1.35,12.31,12.31,0,0,0-5,9.4v.06c0,3.43.86,5.7,2.81,7.37a7.33,7.33,0,0,0,4.81,1.82,8.7,8.7,0,0,0,5.79-2.42,10.18,10.18,0,0,0,2.38-3.16,1.7,1.7,0,0,0-.72-2.37,1.69,1.69,0,0,0-.78-.2,1.78,1.78,0,0,0-1.47.84c-.14.19-.26.39-.39.58l-.08.13a5.7,5.7,0,0,1-3.16,2.3,3.16,3.16,0,0,1-1,.17,2.72,2.72,0,0,1-2.08-1.07,4.47,4.47,0,0,1-1-2.3,9.94,9.94,0,0,1,1.8-7.13,4.52,4.52,0,0,1,1.71-1.67,1.23,1.23,0,0,1,.55-.16c.5,0,.63.5.67.8a1.72,1.72,0,0,1-.11.77c-.48,1.39.11,2.05.69,2.36a1.74,1.74,0,0,0,.83.22,2.13,2.13,0,0,0,1.59-.89,3.89,3.89,0,0,0,.85-3.64,4.27,4.27,0,0,0-2.85-2.86,6.55,6.55,0,0,0-2-.33Z"/>
  </g>
  <path d="M15.5,29.5a14,14,0,1,1,14-14A14,14,0,0,1,15.5,29.5Zm0-27a13,13,0,1,0,13,13A13,13,0,0,0,15.5,2.5Z" fill="#fff"/>
  <path d="M8.5,16.31c0,2.88.61,5,2.46,6.61,2.7,2.32,6.38,2.06,9.28-.57a9.15,9.15,0,0,0,2.15-2.85.73.73,0,0,0-.28-1.06c-.41-.21-.73,0-1,.34s-.3.45-.45.68A6.72,6.72,0,0,1,17,22.16,3.62,3.62,0,0,1,12.87,21a5.49,5.49,0,0,1-1.27-2.79,11,11,0,0,1,1.94-7.82,5.53,5.53,0,0,1,2.09-2,1.72,1.72,0,0,1,2.68,1.42,2.71,2.71,0,0,1-.16,1.2c-.15.43-.28.89.22,1.16s.88-.08,1.19-.44A3,3,0,0,0,18,6.78a5.23,5.23,0,0,0-5,.86A11.36,11.36,0,0,0,8.5,16.31Z" fill="#fff"/>
</svg>
