<svg xmlns="http://www.w3.org/2000/svg" width="50" height="50" viewBox="0 0 50 50">
  <title>Asset 1</title>
  <g>
    <circle cx="25" cy="25" r="25" fill="#00c4cc"/>
    <path d="M40.85,25.82a1.26,1.26,0,0,0,1.85-.35,1.31,1.31,0,0,0-.29-1.4,2.38,2.38,0,0,0-1.5-.51,3.7,3.7,0,0,0-2.64,1c-.36.32-.68.7-1.06,1a1.79,1.79,0,0,1-1.13.28,4.42,4.42,0,0,0,.59-2.2,1.35,1.35,0,0,0-.84-1.3,1.58,1.58,0,0,0-1.71.5,2.73,2.73,0,0,0,.43,3.77,7.54,7.54,0,0,1-1.9,2.16,7,7,0,0,1,.09-4.13,2.12,2.12,0,0,0,.17-.8c-.05-.28-.4-.31-.62-.23a1.73,1.73,0,0,0-1.14,1.18,11.69,11.69,0,0,0-.2,2.46,4.06,4.06,0,0,1-1.69,1.39c-.25.09-.55.24-.8.07s-.18-.46-.14-.68a26.38,26.38,0,0,1,.85-3c.11-.4.29-.88,0-1.24A1.15,1.15,0,0,0,28,23.68a6,6,0,0,0-2.49,1.93A8.89,8.89,0,0,0,25.8,24c-.08-.41-.59-.33-.89-.26a1,1,0,0,0-.8.9c-.19.94-.36,1.88-.55,2.82,0,.23-.25.35-.41.49a5.42,5.42,0,0,1-1.28.78.38.38,0,0,1-.54-.23c0-.64.3-1.25.24-1.9-.08-.24-.37-.28-.58-.23a1.42,1.42,0,0,0-1,1,2.44,2.44,0,0,1-1,1.5.69.69,0,0,1-.86-.19,2.23,2.23,0,0,1-.34-1.7,3.54,3.54,0,0,1,1.12-2.21,1.63,1.63,0,0,1,1.56-.3.6.6,0,0,1,.4.66c0,.32-.39.4-.61.56a.89.89,0,0,0,1,.41,1.1,1.1,0,0,0,.93-.61A1.29,1.29,0,0,0,21.71,24,2.63,2.63,0,0,0,20,23.55a4.12,4.12,0,0,0-3.82,4.28,7.27,7.27,0,0,1-2.59,1.84,4.24,4.24,0,0,1-2.26.37,2.88,2.88,0,0,1-1.87-1.16,5.26,5.26,0,0,1-.92-3.32,12,12,0,0,1,2.09-5.9A8,8,0,0,1,13,17.3a2.28,2.28,0,0,1,1.52-.39A1.34,1.34,0,0,1,15.45,18a3.41,3.41,0,0,1-.2,2.34,4.73,4.73,0,0,1-1,1.1c-.16.13-.16.42.06.47a1.71,1.71,0,0,0,1-.24A3.07,3.07,0,0,0,17,20a2.9,2.9,0,0,0-.56-2.85,3,3,0,0,0-2.26-1,4.8,4.8,0,0,0-2.78.93,11.43,11.43,0,0,0-4.15,5.67,8.33,8.33,0,0,0-.12,5.83,4.46,4.46,0,0,0,5.44,2.59,8.35,8.35,0,0,0,3.88-2.51,2.71,2.71,0,0,0,.89.94,1.89,1.89,0,0,0,1.47.2,2.8,2.8,0,0,0,1-.7,1.4,1.4,0,0,0,.47.61,1.43,1.43,0,0,0,1.15.06,7.34,7.34,0,0,0,1.86-1,3.23,3.23,0,0,0-.1.87.35.35,0,0,0,.31.25,1.3,1.3,0,0,0,1.2-.75c.24-.56.22-1.2.5-1.75a6.77,6.77,0,0,1,1.63-2,1.56,1.56,0,0,1,.75-.38,4.72,4.72,0,0,1-.37,1.32,8.43,8.43,0,0,0-.46,2,1.55,1.55,0,0,0,.48,1.34,1.62,1.62,0,0,0,1.42.13A5.56,5.56,0,0,0,31,28.25a6.75,6.75,0,0,0,.32,1.24c.07.14.14.32.31.35A1.8,1.8,0,0,0,33,29.45a10.35,10.35,0,0,0,2.41-2.55A2.69,2.69,0,0,0,37,26.54a3,3,0,0,0,0,2,2.11,2.11,0,0,0,2,1.31,2,2,0,0,0,1.45-.78A2.59,2.59,0,0,0,42.22,31c.2.05.33-.12.46-.24a4.94,4.94,0,0,1-.74-1.13,4.23,4.23,0,0,1,.17-2.33,1.22,1.22,0,0,0,0-.76.53.53,0,0,0-.61-.13,1.52,1.52,0,0,0-1,1.07,2.28,2.28,0,0,1-1.09,1.45.71.71,0,0,1-.87-.33,2.78,2.78,0,0,1-.24-1.77,3.28,3.28,0,0,1,1.15-2.07,1.57,1.57,0,0,1,1.64-.2c.26.14.29.46.32.72a3.15,3.15,0,0,1-.59.4Zm-5.66-.5a2.3,2.3,0,0,1-.69-1.54.93.93,0,0,1,.22-.69l.34,0A2.45,2.45,0,0,1,35.18,25.32Z" fill="#fff"/>
  </g>
</svg>
