<svg xmlns="http://www.w3.org/2000/svg" width="89" height="43" viewBox="0 0 89 43">
  <title>dropdown-proofme</title>
  <g>
    <g>
      <path d="M25.14,20.48a5,5,0,0,1-1.06,1.85,5.66,5.66,0,0,1-2,1.37,7.24,7.24,0,0,1-3,.54H17.8l-1.05,4.94H13.16l2.95-13.87h4.53a7,7,0,0,1,3.56.76,2.65,2.65,0,0,1,1.27,2.47A6.52,6.52,0,0,1,25.14,20.48Zm-4-2.14a2.05,2.05,0,0,0-.85-.15H19.07l-.68,3.26h1a2.16,2.16,0,0,0,1-.21,1.64,1.64,0,0,0,.63-.57,2.33,2.33,0,0,0,.32-.79,4.21,4.21,0,0,0,.09-.86A.67.67,0,0,0,21.14,18.35Z" fill="#fff"/>
      <path d="M41.29,24.54a7.45,7.45,0,0,1-1,2.33A6.05,6.05,0,0,1,38.3,28.7a5.72,5.72,0,0,1-3,.74,3.91,3.91,0,0,1-2.83-.95,3.66,3.66,0,0,1-1-2.76,8.92,8.92,0,0,1,.13-1.44A8.61,8.61,0,0,1,32,22.72a7.32,7.32,0,0,1,.78-1.52A5.82,5.82,0,0,1,34,19.89,5.56,5.56,0,0,1,35.63,19a6.33,6.33,0,0,1,2.15-.34,5.19,5.19,0,0,1,1.5.21,3.36,3.36,0,0,1,1.22.65,2.93,2.93,0,0,1,.81,1.12,4.28,4.28,0,0,1,.29,1.66A9.34,9.34,0,0,1,41.29,24.54Zm-3.56-3.29a.75.75,0,0,0-.59-.21.86.86,0,0,0-.65.32,3.23,3.23,0,0,0-.52.82,6.85,6.85,0,0,0-.39,1.12q-.16.61-.27,1.18t-.16,1q0,.44,0,.62a1.16,1.16,0,0,0,.18.71.71.71,0,0,0,.6.23.85.85,0,0,0,.65-.32,3.2,3.2,0,0,0,.52-.83,7.35,7.35,0,0,0,.39-1.12q.16-.6.27-1.17t.16-1q0-.44,0-.62A1.1,1.1,0,0,0,37.72,21.25Z" fill="#fff"/>
      <path d="M51.81,24.54a7.45,7.45,0,0,1-1,2.33,6.05,6.05,0,0,1-1.94,1.83,5.72,5.72,0,0,1-3,.74A3.91,3.91,0,0,1,43,28.49a3.66,3.66,0,0,1-1-2.76,8.92,8.92,0,0,1,.13-1.44,8.61,8.61,0,0,1,.42-1.57,7.32,7.32,0,0,1,.78-1.52,5.82,5.82,0,0,1,1.19-1.3A5.56,5.56,0,0,1,46.15,19a6.33,6.33,0,0,1,2.15-.34,5.19,5.19,0,0,1,1.5.21,3.36,3.36,0,0,1,1.22.65,2.93,2.93,0,0,1,.81,1.12,4.28,4.28,0,0,1,.29,1.66A9.34,9.34,0,0,1,51.81,24.54Zm-3.56-3.29a.75.75,0,0,0-.59-.21.86.86,0,0,0-.65.32,3.23,3.23,0,0,0-.52.82,6.85,6.85,0,0,0-.39,1.12q-.16.61-.27,1.18t-.16,1q0,.44,0,.62a1.16,1.16,0,0,0,.18.71.71.71,0,0,0,.6.23.85.85,0,0,0,.65-.32,3.2,3.2,0,0,0,.52-.83A7.35,7.35,0,0,0,48,24.78q.16-.6.27-1.17t.16-1q0-.44,0-.62A1.1,1.1,0,0,0,48.25,21.25Z" fill="#fff"/>
      <path d="M59.8,16.91a1.65,1.65,0,0,0-.5-.07,1,1,0,0,0-.6.2.89.89,0,0,0-.36.54l-.28,1.35h2.17l-.94,2.29H57.65l-1.49,7.3a9.12,9.12,0,0,1-1.23,3.16,12.94,12.94,0,0,1-2,2.39l-2.09-1.83A7.36,7.36,0,0,0,52,30.65a7.58,7.58,0,0,0,.7-2.05l1.49-7.38h-1l.48-2.29h.9a5.59,5.59,0,0,1,.08-.61l.12-.63a4.47,4.47,0,0,1,.74-1.78,3.66,3.66,0,0,1,2.39-1.46,7.75,7.75,0,0,1,1.17-.1,6.67,6.67,0,0,1,1.36.12,3.66,3.66,0,0,1,1.08.42l-1.31,2.18A3,3,0,0,0,59.8,16.91Z" fill="#fff"/>
      <path d="M70.51,29.18l.86-5.59q.1-.66.2-1.27t.28-1.51h0q-.3.88-.52,1.46a11.75,11.75,0,0,1-.5,1.14l-2.93,5.77h-3l-.28-5.61a10.46,10.46,0,0,1,0-1.21q0-.64.15-1.57h0q-.2.94-.35,1.57T64,23.65l-1.45,5.53H59l4.28-13.87h4.28l.18,5.49q0,.58,0,1.18t-.11,1.44h0q.14-.4.27-.74l.26-.67q.13-.33.28-.67t.35-.76l2.52-5.29h4.27L73.89,29.18Z" fill="#fff"/>
      <path d="M85.11,22.93a3.44,3.44,0,0,1-1,1.16,5,5,0,0,1-1.63.81,7.66,7.66,0,0,1-2.24.3l-.77,0a2.07,2.07,0,0,1-.45-.06,1.86,1.86,0,0,0,0,.35c0,.13,0,.22,0,.27a1.31,1.31,0,0,0,.32,1,1.79,1.79,0,0,0,1.12.26,4.38,4.38,0,0,0,1.45-.28A6.06,6.06,0,0,0,83.3,26L84,28.19a10.47,10.47,0,0,1-2.34,1,7.61,7.61,0,0,1-1.88.28,4.88,4.88,0,0,1-3.25-.9,3.64,3.64,0,0,1-1-2.89A8.72,8.72,0,0,1,75.89,23a6.87,6.87,0,0,1,1.19-2.24A5.75,5.75,0,0,1,79,19.2a5.58,5.58,0,0,1,2.56-.57,7,7,0,0,1,1.52.16,3.61,3.61,0,0,1,1.24.51,2.59,2.59,0,0,1,.83.91,2.75,2.75,0,0,1,.31,1.35A3,3,0,0,1,85.11,22.93ZM81.17,21a1.25,1.25,0,0,0-1,.49,3,3,0,0,0-.54,1.3,1.6,1.6,0,0,0,.72.1,2.48,2.48,0,0,0,.59-.07,1.64,1.64,0,0,0,.52-.22,1.41,1.41,0,0,0,.38-.37.84.84,0,0,0,.15-.5Q82,21,81.17,21Z" fill="#fff"/>
      <path d="M32.41,18.68a2.19,2.19,0,0,0-.44-.06h0s-6.72-.55-6.84,8a3.31,3.31,0,0,1-1.47-2.3l-1.49,1.82a6.9,6.9,0,0,0,2.14,3.06h3.48s.31-7.82,2.87-7.78a1.87,1.87,0,0,1,.51.06,1.63,1.63,0,0,1,.45.22L33,18.91A3.76,3.76,0,0,0,32.41,18.68Z" fill="#fff"/>
      <path d="M88.14,15.7a1.34,1.34,0,0,1-.11.54,1.32,1.32,0,0,1-.29.43,1.39,1.39,0,0,1-.43.28,1.36,1.36,0,0,1-1,0,1.39,1.39,0,0,1-.43-.28,1.32,1.32,0,0,1-.29-.43,1.4,1.4,0,0,1,0-1.07,1.31,1.31,0,0,1,.29-.43,1.39,1.39,0,0,1,.43-.28,1.36,1.36,0,0,1,1,0,1.39,1.39,0,0,1,.43.28,1.31,1.31,0,0,1,.29.43A1.34,1.34,0,0,1,88.14,15.7Zm-.24,0a1.19,1.19,0,0,0-.09-.46,1.14,1.14,0,0,0-.24-.37,1.12,1.12,0,0,0-.35-.24,1.06,1.06,0,0,0-.43-.09,1.08,1.08,0,0,0-.44.09,1.09,1.09,0,0,0-.35.24,1.15,1.15,0,0,0-.24.37,1.24,1.24,0,0,0,0,.91,1.16,1.16,0,0,0,.24.36,1.09,1.09,0,0,0,.35.24,1.07,1.07,0,0,0,.44.09,1.06,1.06,0,0,0,.43-.09,1.12,1.12,0,0,0,.35-.24,1.14,1.14,0,0,0,.24-.36A1.19,1.19,0,0,0,87.9,15.7Zm-.8.74-.06-.1L87,16.22l-.07-.12L86.85,16l-.06-.08-.07-.08-.06,0-.08,0v.66h-.21v-1.5h.42A.68.68,0,0,1,87,15a.39.39,0,0,1,.14.08.49.49,0,0,1,.09.12.38.38,0,0,1,0,.19.48.48,0,0,1,0,.16.37.37,0,0,1-.38.25l.08.07,0,.06.06.08.07.11.06.09.07.1.06.09,0,.06Zm0-1.08a.25.25,0,0,0,0-.14.22.22,0,0,0-.1-.08.49.49,0,0,0-.19,0h-.16v.52h.15l.16,0a.24.24,0,0,0,.1-.05A.28.28,0,0,0,87.06,15.36Z" fill="#fff"/>
    </g>
    <rect width="89" height="43" fill="none"/>
  </g>
</svg>
