<svg xmlns="http://www.w3.org/2000/svg" width="89" height="43" viewBox="0 0 89 43">
  <title>dropdown-canva</title>
  <g>
    <path d="M68.75,24.14a1.9,1.9,0,0,0,2.8-.53,2,2,0,0,0-.43-2.12,3.59,3.59,0,0,0-2.26-.78,5.6,5.6,0,0,0-4,1.46c-.55.49-1,1.05-1.6,1.51a2.7,2.7,0,0,1-1.71.43,6.69,6.69,0,0,0,.9-3.32,2,2,0,0,0-1.27-2,2.39,2.39,0,0,0-2.59.76,4.12,4.12,0,0,0,.65,5.7,11.4,11.4,0,0,1-2.87,3.27,10.64,10.64,0,0,1,.13-6.24,3.2,3.2,0,0,0,.26-1.21c-.08-.42-.61-.47-.94-.35a2.62,2.62,0,0,0-1.73,1.79,17.67,17.67,0,0,0-.31,3.72,6.14,6.14,0,0,1-2.56,2.11c-.38.14-.83.36-1.2.11s-.27-.69-.21-1a39.88,39.88,0,0,1,1.29-4.59c.17-.6.43-1.34,0-1.87a1.74,1.74,0,0,0-1.79-.1,9.14,9.14,0,0,0-3.76,2.92A13.43,13.43,0,0,0,46,21.33c-.13-.62-.9-.5-1.35-.39a1.55,1.55,0,0,0-1.21,1.36c-.29,1.42-.54,2.84-.83,4.26,0,.35-.38.53-.62.74a8.19,8.19,0,0,1-1.93,1.17.58.58,0,0,1-.82-.34c-.08-1,.45-1.89.37-2.87-.12-.36-.55-.42-.87-.34a2.15,2.15,0,0,0-1.54,1.52,3.68,3.68,0,0,1-1.57,2.27,1,1,0,0,1-1.3-.29,3.37,3.37,0,0,1-.52-2.58,5.34,5.34,0,0,1,1.69-3.34A2.47,2.47,0,0,1,37.86,22a.9.9,0,0,1,.61,1c0,.48-.59.61-.92.85a1.34,1.34,0,0,0,1.45.62,1.66,1.66,0,0,0,1.41-.92,2,2,0,0,0-.59-2.21,4,4,0,0,0-2.53-.67,6.23,6.23,0,0,0-5.77,6.47A11,11,0,0,1,27.61,30a6.41,6.41,0,0,1-3.42.55,4.35,4.35,0,0,1-2.82-1.75,8,8,0,0,1-1.39-5,18.15,18.15,0,0,1,3.15-8.91,12.07,12.07,0,0,1,3.49-3.58,3.44,3.44,0,0,1,2.3-.59,2,2,0,0,1,1.43,1.61,5.16,5.16,0,0,1-.3,3.54,7.15,7.15,0,0,1-1.44,1.66c-.24.19-.25.63.09.71a2.58,2.58,0,0,0,1.49-.37,4.64,4.64,0,0,0,2.45-2.51A4.38,4.38,0,0,0,31.8,11a4.5,4.5,0,0,0-3.42-1.5,7.26,7.26,0,0,0-4.2,1.4,17.28,17.28,0,0,0-6.27,8.57c-1,2.81-1.35,6-.18,8.82A6.74,6.74,0,0,0,26,32.21a12.63,12.63,0,0,0,5.87-3.79,4.09,4.09,0,0,0,1.35,1.42,2.86,2.86,0,0,0,2.22.3A4.23,4.23,0,0,0,37,29.08a2.11,2.11,0,0,0,.71.93,2.16,2.16,0,0,0,1.74.09,11.09,11.09,0,0,0,2.81-1.56,4.88,4.88,0,0,0-.16,1.32.53.53,0,0,0,.46.37,2,2,0,0,0,1.82-1.13c.36-.85.33-1.82.75-2.65a10.23,10.23,0,0,1,2.46-3.07,2.36,2.36,0,0,1,1.13-.58,7.14,7.14,0,0,1-.56,2,12.74,12.74,0,0,0-.69,3.06,2.34,2.34,0,0,0,.72,2,2.45,2.45,0,0,0,2.15.2,8.4,8.4,0,0,0,3.64-2.29,10.2,10.2,0,0,0,.48,1.87c.1.21.21.48.47.53a2.72,2.72,0,0,0,2-.58,15.64,15.64,0,0,0,3.65-3.85,4.07,4.07,0,0,0,2.33-.53,4.52,4.52,0,0,0,.05,3,3.18,3.18,0,0,0,3,2,3,3,0,0,0,2.19-1.18,3.91,3.91,0,0,0,2.75,2.84c.3.08.5-.19.7-.36a7.47,7.47,0,0,1-1.11-1.71,6.39,6.39,0,0,1,.25-3.53,1.84,1.84,0,0,0,0-1.15.81.81,0,0,0-.92-.2,2.3,2.3,0,0,0-1.46,1.61,3.45,3.45,0,0,1-1.65,2.2,1.07,1.07,0,0,1-1.32-.5A4.2,4.2,0,0,1,65,25.58a5,5,0,0,1,1.74-3.13,2.37,2.37,0,0,1,2.48-.31c.4.21.44.69.48,1.08a4.77,4.77,0,0,1-.89.61Zm-8.56-.75a3.48,3.48,0,0,1-1-2.33,1.4,1.4,0,0,1,.33-1A5,5,0,0,1,60,20,3.71,3.71,0,0,1,60.19,23.38Z" fill="#fff"/>
    <rect width="89" height="43" fill="none"/>
  </g>
</svg>
