<svg xmlns="http://www.w3.org/2000/svg" width="33.88" height="36.03" viewBox="0 0 33.88 36.03">
  <title>icon-create-version</title>
  <g>
    <path d="M10.57,27.28a2,2,0,0,1,1.6-3.2h1a11.48,11.48,0,0,1,5.42-7.47C19.83,12,21.8,8.13,24.89,8.18a5.49,5.49,0,0,1,1.49.18A4.79,4.79,0,0,1,27.69,9L31.78.87A11,11,0,0,0,30,.21,6.41,6.41,0,0,0,28.75,0h0S9-1.6,8.69,23.43c0,0-3.9-2.37-4.31-6.75L0,22a20.24,20.24,0,0,0,6.27,9h7.1Z" fill="#fff"/>
    <path d="M24.38,17a9.5,9.5,0,0,0-9.48,9H12.17l4.52,6,4.52-6H18.52a5.89,5.89,0,1,1,1.58,4.48l-2.2,2.91A9.49,9.49,0,1,0,24.38,17Z" fill="#fff"/>
  </g>
</svg>
