<svg xmlns="http://www.w3.org/2000/svg" width="11" height="11" viewBox="0 0 11 11">
  <title>dropdown-info</title>
  <g>
    <path d="M5.5,0A5.5,5.5,0,1,0,11,5.5,5.51,5.51,0,0,0,5.5,0Z" fill="#00b4ff"/>
    <path d="M5.69,8.73a.77.77,0,0,0,.43-.18.47.47,0,0,1,0,.48,1.36,1.36,0,0,1-1,.36c-.74,0-1-.52-.87-1.28l.4-2.86a3.79,3.79,0,0,1-.74,0,1.86,1.86,0,0,1-.08-.6,4.72,4.72,0,0,0,1.57-.5H6l-.14,1L5.44,8.11l0,.16c0,.34.08.46.27.46Zm-.8-6.25a.78.78,0,0,1,.78-.73.58.58,0,0,1,.59.59.78.78,0,0,1-.78.73A.58.58,0,0,1,4.88,2.48Z" fill="#fff"/>
  </g>
</svg>
